<mxfile host="Electron" modified="2024-06-08T14:54:59.610Z" agent="Mozilla/5.0 (X11; Linux x86_64) AppleWebKit/537.36 (KHTML, like Gecko) draw.io/24.4.13 Chrome/124.0.6367.207 Electron/30.0.6 Safari/537.36" etag="2_dLLo2ChTVGPVsJ9f8E" version="24.4.13" type="device">
  <diagram name="Página-1" id="CurySxxXu2C1Rzmgpb91">
    <mxGraphModel dx="954" dy="1196" grid="1" gridSize="10" guides="1" tooltips="1" connect="1" arrows="1" fold="1" page="1" pageScale="1" pageWidth="827" pageHeight="583" math="0" shadow="0">
      <root>
        <mxCell id="0" />
        <mxCell id="1" parent="0" />
        <mxCell id="Q6l-A-WZH55Bo8x8fdeK-15" style="edgeStyle=orthogonalEdgeStyle;rounded=0;orthogonalLoop=1;jettySize=auto;html=1;exitX=0.5;exitY=1;exitDx=0;exitDy=0;entryX=0.5;entryY=0;entryDx=0;entryDy=0;" parent="1" source="Q6l-A-WZH55Bo8x8fdeK-4" target="Q6l-A-WZH55Bo8x8fdeK-14" edge="1">
          <mxGeometry relative="1" as="geometry" />
        </mxCell>
        <mxCell id="Q6l-A-WZH55Bo8x8fdeK-4" value="Inicio de simulación" style="ellipse;whiteSpace=wrap;html=1;fillColor=#f5f5f5;fontColor=#333333;strokeColor=none;" parent="1" vertex="1">
          <mxGeometry x="61.5" y="-10" width="120" height="60" as="geometry" />
        </mxCell>
        <mxCell id="Q6l-A-WZH55Bo8x8fdeK-22" style="edgeStyle=orthogonalEdgeStyle;rounded=0;orthogonalLoop=1;jettySize=auto;html=1;exitX=0.5;exitY=1;exitDx=0;exitDy=0;entryX=0.5;entryY=0;entryDx=0;entryDy=0;" parent="1" source="Q6l-A-WZH55Bo8x8fdeK-13" target="Q6l-A-WZH55Bo8x8fdeK-28" edge="1">
          <mxGeometry relative="1" as="geometry">
            <mxPoint x="329.25" y="390" as="targetPoint" />
          </mxGeometry>
        </mxCell>
        <mxCell id="Q6l-A-WZH55Bo8x8fdeK-13" value="Asignar 9 posiciones de memoria y almacenar el qubit a transmitir en la primera" style="rounded=0;whiteSpace=wrap;html=1;fillColor=#dae8fc;strokeColor=none;" parent="1" vertex="1">
          <mxGeometry x="50.5" y="300" width="145" height="60" as="geometry" />
        </mxCell>
        <mxCell id="Q6l-A-WZH55Bo8x8fdeK-17" style="edgeStyle=orthogonalEdgeStyle;rounded=0;orthogonalLoop=1;jettySize=auto;html=1;exitX=1;exitY=0.5;exitDx=0;exitDy=0;" parent="1" source="Q6l-A-WZH55Bo8x8fdeK-14" target="Q6l-A-WZH55Bo8x8fdeK-16" edge="1">
          <mxGeometry relative="1" as="geometry" />
        </mxCell>
        <mxCell id="Q6l-A-WZH55Bo8x8fdeK-25" value="NO" style="edgeLabel;html=1;align=center;verticalAlign=middle;resizable=0;points=[];" parent="Q6l-A-WZH55Bo8x8fdeK-17" vertex="1" connectable="0">
          <mxGeometry x="-0.4429" y="-1" relative="1" as="geometry">
            <mxPoint as="offset" />
          </mxGeometry>
        </mxCell>
        <mxCell id="wnbhyrZnfQyHXPAVB864-2" style="edgeStyle=orthogonalEdgeStyle;rounded=0;orthogonalLoop=1;jettySize=auto;html=1;exitX=0.5;exitY=1;exitDx=0;exitDy=0;entryX=0.5;entryY=0;entryDx=0;entryDy=0;" edge="1" parent="1" source="Q6l-A-WZH55Bo8x8fdeK-14" target="wnbhyrZnfQyHXPAVB864-1">
          <mxGeometry relative="1" as="geometry" />
        </mxCell>
        <mxCell id="wnbhyrZnfQyHXPAVB864-3" value="SI" style="edgeLabel;html=1;align=center;verticalAlign=middle;resizable=0;points=[];" vertex="1" connectable="0" parent="wnbhyrZnfQyHXPAVB864-2">
          <mxGeometry x="-0.6" y="1" relative="1" as="geometry">
            <mxPoint as="offset" />
          </mxGeometry>
        </mxCell>
        <mxCell id="Q6l-A-WZH55Bo8x8fdeK-14" value="Simulación activa?" style="rhombus;whiteSpace=wrap;html=1;" parent="1" vertex="1">
          <mxGeometry x="82.5" y="80" width="80" height="80" as="geometry" />
        </mxCell>
        <mxCell id="Q6l-A-WZH55Bo8x8fdeK-16" value="Fin simulación" style="ellipse;whiteSpace=wrap;html=1;fillColor=#f5f5f5;fontColor=#333333;strokeColor=none;" parent="1" vertex="1">
          <mxGeometry x="452.5" y="90" width="120" height="60" as="geometry" />
        </mxCell>
        <mxCell id="wnbhyrZnfQyHXPAVB864-39" style="edgeStyle=orthogonalEdgeStyle;rounded=0;orthogonalLoop=1;jettySize=auto;html=1;exitX=0.5;exitY=1;exitDx=0;exitDy=0;entryX=0.5;entryY=0;entryDx=0;entryDy=0;" edge="1" parent="1" source="Q6l-A-WZH55Bo8x8fdeK-28" target="wnbhyrZnfQyHXPAVB864-15">
          <mxGeometry relative="1" as="geometry" />
        </mxCell>
        <mxCell id="Q6l-A-WZH55Bo8x8fdeK-28" value="Ejecutar circuito de codificación Shor [[9,1,3]]" style="rounded=0;whiteSpace=wrap;html=1;fillColor=#dae8fc;strokeColor=none;" parent="1" vertex="1">
          <mxGeometry x="49.5" y="390" width="145" height="60" as="geometry" />
        </mxCell>
        <mxCell id="wnbhyrZnfQyHXPAVB864-18" style="edgeStyle=orthogonalEdgeStyle;rounded=0;orthogonalLoop=1;jettySize=auto;html=1;exitX=0.5;exitY=1;exitDx=0;exitDy=0;entryX=0.5;entryY=0;entryDx=0;entryDy=0;" edge="1" parent="1" source="Q6l-A-WZH55Bo8x8fdeK-29" target="Q6l-A-WZH55Bo8x8fdeK-30">
          <mxGeometry relative="1" as="geometry" />
        </mxCell>
        <mxCell id="Q6l-A-WZH55Bo8x8fdeK-29" value="Solicitar un par entrelazado al RouteProtocol del path" style="rounded=0;whiteSpace=wrap;html=1;fillColor=#dae8fc;strokeColor=none;" parent="1" vertex="1">
          <mxGeometry x="250" y="360" width="145" height="60" as="geometry" />
        </mxCell>
        <mxCell id="Q6l-A-WZH55Bo8x8fdeK-35" style="edgeStyle=orthogonalEdgeStyle;rounded=0;orthogonalLoop=1;jettySize=auto;html=1;exitX=0.5;exitY=1;exitDx=0;exitDy=0;entryX=0.5;entryY=0;entryDx=0;entryDy=0;" parent="1" source="Q6l-A-WZH55Bo8x8fdeK-30" target="Q6l-A-WZH55Bo8x8fdeK-31" edge="1">
          <mxGeometry relative="1" as="geometry" />
        </mxCell>
        <mxCell id="Q6l-A-WZH55Bo8x8fdeK-30" value="Esperar a que el par esté disponible" style="rounded=0;whiteSpace=wrap;html=1;fillColor=#dae8fc;strokeColor=none;" parent="1" vertex="1">
          <mxGeometry x="250" y="440" width="145" height="60" as="geometry" />
        </mxCell>
        <mxCell id="Q6l-A-WZH55Bo8x8fdeK-36" style="edgeStyle=orthogonalEdgeStyle;rounded=0;orthogonalLoop=1;jettySize=auto;html=1;exitX=0.5;exitY=1;exitDx=0;exitDy=0;entryX=0.5;entryY=0;entryDx=0;entryDy=0;" parent="1" source="Q6l-A-WZH55Bo8x8fdeK-31" target="Q6l-A-WZH55Bo8x8fdeK-32" edge="1">
          <mxGeometry relative="1" as="geometry" />
        </mxCell>
        <mxCell id="Q6l-A-WZH55Bo8x8fdeK-31" value="Realizar mediciones en base de Bell" style="rounded=0;whiteSpace=wrap;html=1;fillColor=#dae8fc;strokeColor=none;" parent="1" vertex="1">
          <mxGeometry x="440" y="200" width="145" height="60" as="geometry" />
        </mxCell>
        <mxCell id="wnbhyrZnfQyHXPAVB864-40" style="edgeStyle=orthogonalEdgeStyle;rounded=0;orthogonalLoop=1;jettySize=auto;html=1;exitX=0.5;exitY=1;exitDx=0;exitDy=0;entryX=0.5;entryY=0;entryDx=0;entryDy=0;" edge="1" parent="1" source="Q6l-A-WZH55Bo8x8fdeK-32" target="Q6l-A-WZH55Bo8x8fdeK-37">
          <mxGeometry relative="1" as="geometry" />
        </mxCell>
        <mxCell id="Q6l-A-WZH55Bo8x8fdeK-32" value="Enviar correcciones al nodo final" style="rounded=0;whiteSpace=wrap;html=1;fillColor=#dae8fc;strokeColor=none;" parent="1" vertex="1">
          <mxGeometry x="440" y="280" width="145" height="60" as="geometry" />
        </mxCell>
        <mxCell id="wnbhyrZnfQyHXPAVB864-47" style="edgeStyle=orthogonalEdgeStyle;rounded=0;orthogonalLoop=1;jettySize=auto;html=1;exitX=0.5;exitY=1;exitDx=0;exitDy=0;entryX=0.5;entryY=0;entryDx=0;entryDy=0;" edge="1" parent="1" source="Q6l-A-WZH55Bo8x8fdeK-37" target="wnbhyrZnfQyHXPAVB864-41">
          <mxGeometry relative="1" as="geometry" />
        </mxCell>
        <mxCell id="Q6l-A-WZH55Bo8x8fdeK-37" value="Esperar finalización protocolo de&amp;nbsp;&lt;span style=&quot;color: rgba(0, 0, 0, 0); font-family: monospace; font-size: 0px; text-align: start; text-wrap: nowrap;&quot;&gt;%3CmxGraphModel%3E%3Croot%3E%3CmxCell%20id%3D%220%22%2F%3E%3CmxCell%20id%3D%221%22%20parent%3D%220%22%2F%3E%3CmxCell%20id%3D%222%22%20value%3D%22Enviar%20correcciones%20al%20nodo%20final%22%20style%3D%22rounded%3D0%3BwhiteSpace%3Dwrap%3Bhtml%3D1%3BfillColor%3D%23dae8fc%3BstrokeColor%3Dnone%3B%22%20vertex%3D%221%22%20parent%3D%221%22%3E%3CmxGeometry%20x%3D%22250%22%20y%3D%22370%22%20width%3D%22145%22%20height%3D%2260%22%20as%3D%22geometry%22%2F%3E%3C%2FmxCell%3E%3C%2Froot%3E%3C%2FmxGraphModel%3E&lt;/span&gt;&lt;span style=&quot;color: rgba(0, 0, 0, 0); font-family: monospace; font-size: 0px; text-align: start; text-wrap: nowrap;&quot;&gt;%3CmxGraphModel%3E%3Croot%3E%3CmxCell%20id%3D%220%22%2F%3E%3CmxCell%20id%3D%221%22%20parent%3D%220%22%2F%3E%3CmxCell%20id%3D%222%22%20value%3D%22Enviar%20correcciones%20al%20nodo%20final%22%20style%3D%22rounded%3D0%3BwhiteSpace%3Dwrap%3Bhtml%3D1%3BfillColor%3D%23dae8fc%3BstrokeColor%3Dnone%3B%22%20vertex%3D%221%22%20parent%3D%221%22%3E%3CmxGeometry%20x%3D%22250%22%20y%3D%22370%22%20width%3D%22145%22%20height%3D%2260%22%20as%3D%22geometry%22%2F%3E%3C%2FmxCell%3E%3C%2Froot%3E%3C%2FmxGraphModel%3E&lt;/span&gt;Teleportación" style="rounded=0;whiteSpace=wrap;html=1;fillColor=#dae8fc;strokeColor=none;" parent="1" vertex="1">
          <mxGeometry x="440" y="360" width="145" height="60" as="geometry" />
        </mxCell>
        <mxCell id="wnbhyrZnfQyHXPAVB864-29" style="edgeStyle=orthogonalEdgeStyle;rounded=0;orthogonalLoop=1;jettySize=auto;html=1;exitX=0.5;exitY=1;exitDx=0;exitDy=0;entryX=0.5;entryY=0;entryDx=0;entryDy=0;" edge="1" parent="1" source="Q6l-A-WZH55Bo8x8fdeK-39" target="wnbhyrZnfQyHXPAVB864-23">
          <mxGeometry relative="1" as="geometry" />
        </mxCell>
        <mxCell id="Q6l-A-WZH55Bo8x8fdeK-39" value="Ejecutar circuito de decodificación de Shor [[9,1,3]]" style="rounded=0;whiteSpace=wrap;html=1;fillColor=#dae8fc;strokeColor=none;" parent="1" vertex="1">
          <mxGeometry x="627.5" y="260" width="145" height="60" as="geometry" />
        </mxCell>
        <mxCell id="wnbhyrZnfQyHXPAVB864-4" style="edgeStyle=orthogonalEdgeStyle;rounded=0;orthogonalLoop=1;jettySize=auto;html=1;exitX=0.5;exitY=1;exitDx=0;exitDy=0;entryX=0.5;entryY=0;entryDx=0;entryDy=0;" edge="1" parent="1" source="wnbhyrZnfQyHXPAVB864-1" target="Q6l-A-WZH55Bo8x8fdeK-13">
          <mxGeometry relative="1" as="geometry" />
        </mxCell>
        <mxCell id="wnbhyrZnfQyHXPAVB864-5" value="NO" style="edgeLabel;html=1;align=center;verticalAlign=middle;resizable=0;points=[];" vertex="1" connectable="0" parent="wnbhyrZnfQyHXPAVB864-4">
          <mxGeometry x="-0.1997" relative="1" as="geometry">
            <mxPoint as="offset" />
          </mxGeometry>
        </mxCell>
        <mxCell id="wnbhyrZnfQyHXPAVB864-12" style="edgeStyle=orthogonalEdgeStyle;rounded=0;orthogonalLoop=1;jettySize=auto;html=1;exitX=1;exitY=0.5;exitDx=0;exitDy=0;entryX=0;entryY=0.5;entryDx=0;entryDy=0;" edge="1" parent="1" source="wnbhyrZnfQyHXPAVB864-1" target="wnbhyrZnfQyHXPAVB864-9">
          <mxGeometry relative="1" as="geometry" />
        </mxCell>
        <mxCell id="wnbhyrZnfQyHXPAVB864-13" value="SI" style="edgeLabel;html=1;align=center;verticalAlign=middle;resizable=0;points=[];" vertex="1" connectable="0" parent="wnbhyrZnfQyHXPAVB864-12">
          <mxGeometry x="-0.6229" y="2" relative="1" as="geometry">
            <mxPoint x="1" as="offset" />
          </mxGeometry>
        </mxCell>
        <mxCell id="wnbhyrZnfQyHXPAVB864-1" value="Existe qubit codificado?" style="rhombus;whiteSpace=wrap;html=1;" vertex="1" parent="1">
          <mxGeometry x="82.5" y="190" width="80" height="80" as="geometry" />
        </mxCell>
        <mxCell id="wnbhyrZnfQyHXPAVB864-14" style="edgeStyle=orthogonalEdgeStyle;rounded=0;orthogonalLoop=1;jettySize=auto;html=1;exitX=0.5;exitY=1;exitDx=0;exitDy=0;entryX=0.5;entryY=0;entryDx=0;entryDy=0;" edge="1" parent="1" source="wnbhyrZnfQyHXPAVB864-9" target="wnbhyrZnfQyHXPAVB864-10">
          <mxGeometry relative="1" as="geometry" />
        </mxCell>
        <mxCell id="wnbhyrZnfQyHXPAVB864-9" value="Seleccionar siguiente posición de memoria" style="rounded=0;whiteSpace=wrap;html=1;fillColor=#dae8fc;strokeColor=none;" vertex="1" parent="1">
          <mxGeometry x="250" y="200" width="145" height="60" as="geometry" />
        </mxCell>
        <mxCell id="wnbhyrZnfQyHXPAVB864-17" style="edgeStyle=orthogonalEdgeStyle;rounded=0;orthogonalLoop=1;jettySize=auto;html=1;exitX=0.5;exitY=1;exitDx=0;exitDy=0;entryX=0.5;entryY=0;entryDx=0;entryDy=0;" edge="1" parent="1" source="wnbhyrZnfQyHXPAVB864-10" target="Q6l-A-WZH55Bo8x8fdeK-29">
          <mxGeometry relative="1" as="geometry" />
        </mxCell>
        <mxCell id="wnbhyrZnfQyHXPAVB864-10" value="Transferir qubit de la posición seleccionada a la posición de teleportación" style="rounded=0;whiteSpace=wrap;html=1;fillColor=#dae8fc;strokeColor=none;" vertex="1" parent="1">
          <mxGeometry x="250" y="280" width="145" height="60" as="geometry" />
        </mxCell>
        <mxCell id="wnbhyrZnfQyHXPAVB864-16" style="edgeStyle=orthogonalEdgeStyle;rounded=0;orthogonalLoop=1;jettySize=auto;html=1;exitX=1;exitY=0.5;exitDx=0;exitDy=0;entryX=0;entryY=0.5;entryDx=0;entryDy=0;" edge="1" parent="1" source="wnbhyrZnfQyHXPAVB864-15" target="Q6l-A-WZH55Bo8x8fdeK-29">
          <mxGeometry relative="1" as="geometry" />
        </mxCell>
        <mxCell id="wnbhyrZnfQyHXPAVB864-15" value="Transferir primer qubit codificado a la posición de teleportación" style="rounded=0;whiteSpace=wrap;html=1;fillColor=#dae8fc;strokeColor=none;" vertex="1" parent="1">
          <mxGeometry x="49" y="470" width="145" height="60" as="geometry" />
        </mxCell>
        <mxCell id="wnbhyrZnfQyHXPAVB864-50" style="edgeStyle=orthogonalEdgeStyle;rounded=0;orthogonalLoop=1;jettySize=auto;html=1;exitX=0.5;exitY=1;exitDx=0;exitDy=0;entryX=0.5;entryY=0;entryDx=0;entryDy=0;" edge="1" parent="1" source="wnbhyrZnfQyHXPAVB864-19" target="Q6l-A-WZH55Bo8x8fdeK-39">
          <mxGeometry relative="1" as="geometry" />
        </mxCell>
        <mxCell id="wnbhyrZnfQyHXPAVB864-19" value="Es el último qubit del bloque?" style="rhombus;whiteSpace=wrap;html=1;" vertex="1" parent="1">
          <mxGeometry x="660" y="150" width="80" height="80" as="geometry" />
        </mxCell>
        <mxCell id="wnbhyrZnfQyHXPAVB864-45" style="edgeStyle=orthogonalEdgeStyle;rounded=0;orthogonalLoop=1;jettySize=auto;html=1;exitX=0.5;exitY=1;exitDx=0;exitDy=0;entryX=0.5;entryY=0;entryDx=0;entryDy=0;" edge="1" parent="1" source="wnbhyrZnfQyHXPAVB864-23" target="wnbhyrZnfQyHXPAVB864-30">
          <mxGeometry relative="1" as="geometry" />
        </mxCell>
        <mxCell id="wnbhyrZnfQyHXPAVB864-23" value="Recuperar el qubit en la primera posición del bloque de memoria (qubit decodificado)" style="rounded=0;whiteSpace=wrap;html=1;fillColor=#dae8fc;strokeColor=none;" vertex="1" parent="1">
          <mxGeometry x="627.5" y="340" width="145" height="60" as="geometry" />
        </mxCell>
        <mxCell id="wnbhyrZnfQyHXPAVB864-27" style="edgeStyle=orthogonalEdgeStyle;rounded=0;orthogonalLoop=1;jettySize=auto;html=1;exitX=1;exitY=0.5;exitDx=0;exitDy=0;entryX=0;entryY=0.5;entryDx=0;entryDy=0;" edge="1" parent="1" source="wnbhyrZnfQyHXPAVB864-19" target="wnbhyrZnfQyHXPAVB864-1">
          <mxGeometry relative="1" as="geometry">
            <mxPoint x="945" y="220" as="sourcePoint" />
            <Array as="points">
              <mxPoint x="800" y="190" />
              <mxPoint x="800" y="590" />
              <mxPoint x="30" y="590" />
              <mxPoint x="30" y="230" />
            </Array>
          </mxGeometry>
        </mxCell>
        <mxCell id="wnbhyrZnfQyHXPAVB864-43" value="NO" style="edgeLabel;html=1;align=center;verticalAlign=middle;resizable=0;points=[];" vertex="1" connectable="0" parent="wnbhyrZnfQyHXPAVB864-27">
          <mxGeometry x="-0.9656" y="-1" relative="1" as="geometry">
            <mxPoint as="offset" />
          </mxGeometry>
        </mxCell>
        <mxCell id="wnbhyrZnfQyHXPAVB864-49" style="edgeStyle=orthogonalEdgeStyle;rounded=0;orthogonalLoop=1;jettySize=auto;html=1;exitX=0.5;exitY=1;exitDx=0;exitDy=0;entryX=0.5;entryY=0;entryDx=0;entryDy=0;" edge="1" parent="1" source="wnbhyrZnfQyHXPAVB864-30" target="wnbhyrZnfQyHXPAVB864-32">
          <mxGeometry relative="1" as="geometry" />
        </mxCell>
        <mxCell id="wnbhyrZnfQyHXPAVB864-30" value="Medir fidelidad del qubit decodificado respecto del enviado originalmente" style="rounded=0;whiteSpace=wrap;html=1;fillColor=#dae8fc;strokeColor=none;" vertex="1" parent="1">
          <mxGeometry x="627.5" y="420" width="145" height="60" as="geometry" />
        </mxCell>
        <mxCell id="wnbhyrZnfQyHXPAVB864-51" style="edgeStyle=orthogonalEdgeStyle;rounded=0;orthogonalLoop=1;jettySize=auto;html=1;exitX=0.5;exitY=1;exitDx=0;exitDy=0;entryX=0;entryY=0.5;entryDx=0;entryDy=0;" edge="1" parent="1" source="wnbhyrZnfQyHXPAVB864-32" target="wnbhyrZnfQyHXPAVB864-1">
          <mxGeometry relative="1" as="geometry">
            <Array as="points">
              <mxPoint x="700" y="590" />
              <mxPoint x="30" y="590" />
              <mxPoint x="30" y="230" />
            </Array>
          </mxGeometry>
        </mxCell>
        <mxCell id="wnbhyrZnfQyHXPAVB864-32" value="Registrar resultado en datacollector" style="rounded=0;whiteSpace=wrap;html=1;fillColor=#dae8fc;strokeColor=none;" vertex="1" parent="1">
          <mxGeometry x="627.5" y="500" width="145" height="60" as="geometry" />
        </mxCell>
        <mxCell id="wnbhyrZnfQyHXPAVB864-42" style="edgeStyle=orthogonalEdgeStyle;rounded=0;orthogonalLoop=1;jettySize=auto;html=1;exitX=1;exitY=0.5;exitDx=0;exitDy=0;entryX=0;entryY=0.5;entryDx=0;entryDy=0;" edge="1" parent="1" source="wnbhyrZnfQyHXPAVB864-41" target="wnbhyrZnfQyHXPAVB864-19">
          <mxGeometry relative="1" as="geometry">
            <Array as="points">
              <mxPoint x="610" y="470" />
              <mxPoint x="610" y="190" />
            </Array>
          </mxGeometry>
        </mxCell>
        <mxCell id="wnbhyrZnfQyHXPAVB864-41" value="Almacenar qubit teleportado en posición de memoria adecuada del nodo destino" style="rounded=0;whiteSpace=wrap;html=1;fillColor=#dae8fc;strokeColor=none;" vertex="1" parent="1">
          <mxGeometry x="440" y="440" width="145" height="60" as="geometry" />
        </mxCell>
      </root>
    </mxGraphModel>
  </diagram>
</mxfile>
